<?xml version="1.0" encoding="UTF-8"?>
<svg xmlns="http://www.w3.org/2000/svg" viewBox="0 0 512 512" width="512" height="512">
<path d="M103.8 0.08C109.73 0.08 115.66 0.08 121.59 0.08C124.81 2.02 132.25 1.98 136.28 3.26C141.36 4.87 146.24 6.81 151.02 9.14C153.11 10.17 155.62 12.51 157.88 12.91C159.51 13.2 161.33 12.27 162.95 12.1C166.61 11.72 170.52 11.72 174.17 12.12C188.81 13.76 201.82 23.85 208.31 36.84C213.42 37.38 219.54 34.96 224.67 34.2C235.01 32.67 245.55 32 256 32C266.45 32 276.99 32.67 287.33 34.2C292.46 34.96 298.57 37.38 303.69 36.84C310.1 23.83 323.25 13.74 337.83 12.12C341.48 11.72 345.39 11.72 349.05 12.1C350.67 12.27 352.49 13.2 354.12 12.91C356.8 12.44 365.98 6.66 369.71 5.24C374.44 3.43 387.86 1.58 390.4 0.08C396.34 0.08 402.27 0.08 408.21 0.08C410.32 1.55 421.65 2.99 425.28 4.14C435.16 7.26 444.75 12.65 452.72 19.32C482.29 44.09 491.3 86.22 474.75 121.02C470.6 129.74 464.54 137.84 457.6 144.56C455.21 146.86 452.23 148.74 450.1 151.26C451.09 154.86 453.32 158.23 454.8 161.67C457.75 168.51 460.59 175.52 462.82 182.63C465.15 190.06 467.04 197.6 468.77 205.19C469.68 209.18 469.64 213.67 471.05 217.52C471.81 219.6 473.73 221.55 474.82 223.49C477.03 227.44 478.82 231.93 479.88 236.33C485.13 258.13 476.1 281.18 457.63 293.73C451.78 297.71 444.79 300.67 437.81 301.88C433.69 302.59 428.52 301.91 424.67 303.23C422.54 307.03 421.54 311.69 419.73 315.72C415.45 325.21 410.44 334.41 404.45 342.96C401.07 347.77 394.53 354.76 389.13 347.55C385.28 342.42 389.95 337.68 392.74 333.56C400.41 322.26 406.12 310.12 410.72 297.34C420.13 271.18 420.5 240.35 414.2 213.45C411.52 202.02 408.65 190.31 400.63 181.29C388.82 168 374.74 166.56 357.93 166.56C345.46 166.56 332.99 166.56 320.53 166.56C310.95 166.56 301.38 167 292.23 163.88C282.83 160.67 275.97 153.66 269.16 146.76C265.3 142.85 261.23 137.68 255.06 138.36C247.34 139.2 239.32 150.65 233.62 155.77C225.6 162.95 215.14 166.1 204.57 166.54C189.04 167.18 173.35 166.56 157.81 166.56C136.67 166.56 117.86 167.69 106.24 188.3C97.25 204.23 94.12 227.62 93.87 245.71C93.61 264.25 96.22 282.29 102.14 299.8C126.58 372.13 204.88 408.15 277.51 399.81C305.05 396.65 330.81 387.04 353.92 371.92C359.01 368.6 367.07 360.07 371.99 358.2C374.35 357.31 377.32 357.74 379.33 359.23C383.07 362 382.95 367.58 379.81 370.71C375.29 375.21 369.86 378.98 364.73 382.73C362.44 384.4 359.43 385.74 357.59 387.86C358.7 390.78 362.6 393.4 364.72 395.8C369.16 400.83 373.14 406.17 376.8 411.78C389.82 431.81 395.54 454.32 399.27 477.63C400.29 483.98 402.49 500.88 400.67 506.57C399.78 509.36 397.47 509.89 396.03 511.92C302.68 511.92 209.32 511.92 115.97 511.92C114.53 509.89 112.21 509.37 111.33 506.58C109.25 500.02 112.04 483.61 112.89 476.35C115.76 451.94 123.97 427.45 138.18 407.26C143.06 400.33 149.12 394.75 154.49 388.33C152.66 384.87 146.33 382.28 143.17 379.81C135.78 374.05 128.61 367.92 122.25 361C111.5 349.29 102.24 336.32 95.26 322.05C92.28 315.96 90.48 309.2 87.42 303.23C83.48 301.97 78.39 302.6 74.19 301.88C67.42 300.71 60.29 297.85 54.66 293.91C36.14 280.94 26.81 258.67 32.11 236.32C33.16 231.93 34.97 227.43 37.19 223.5C38.28 221.56 40.18 219.59 40.95 217.52C42.37 213.68 42.34 209.16 43.22 205.17C44.89 197.59 46.85 190.04 49.18 182.63C51.41 175.52 54.25 168.51 57.2 161.67C58.68 158.23 60.91 154.86 61.9 151.26C57.12 145.61 50.86 141.41 46.24 135.42C34.03 119.63 28.5 100.52 28.95 80.66C29.09 74.53 30.41 57 36.68 54.16C41.69 51.9 47.26 55.63 47.23 61.02C47.21 64.04 45.9 66.97 45.23 69.88C44.22 74.32 43.95 78.92 43.89 83.46C43.63 103.14 52.51 126.2 69.44 137.61C72.84 133.65 75.34 128.68 78.31 124.36C83.35 117.03 89.06 109.82 95.16 103.33C101.01 97.11 106.99 90.76 113.59 85.31C118.13 81.56 123.98 78.05 127.82 73.64C123.11 59.59 122.94 45.15 131.18 32.27C133.85 28.07 137.96 25.16 140.75 21.27C136.66 17.69 128.46 16.5 123.21 15.86C106.24 13.78 89.54 16.83 75.13 26.24C70.63 29.18 60.8 39.68 57.83 40.8C54.92 41.91 51.14 40.92 49.26 38.43C44.35 31.97 52.17 25.69 56.57 21.73C65.24 13.94 75.33 8.06 86.32 4.26C90.21 2.92 101.46 1.71 103.8 0.08ZM442.56 137.61C448.56 133.65 453.4 127.28 457.28 121.35C478.44 89.08 467.17 44.16 434.26 24.68C420.33 16.44 404.79 13.87 388.79 15.85C383.51 16.51 375.37 17.69 371.24 21.27C374.04 25.16 378.15 28.07 380.82 32.27C389.09 45.23 388.75 59.51 384.18 73.64C388.15 78.02 393.83 81.52 398.41 85.31C405.32 91.02 411.73 97.67 417.73 104.31C423.44 110.61 428.85 117.38 433.69 124.36C436.68 128.67 439.14 133.67 442.56 137.61ZM193.07 40.45C182.24 23.59 157.5 22.48 145.22 38.37C141.12 43.68 138.72 51.01 139.26 57.75C139.43 59.91 139.56 63.51 141.4 64.76C153.27 57.31 165.83 51.42 178.76 46.17C181.63 45 191.89 42.57 193.07 40.45ZM370.6 64.76C372.43 63.5 372.55 59.91 372.72 57.75C373.25 51.02 370.87 43.68 366.78 38.38C354.49 22.47 329.77 23.6 318.92 40.45C320.14 42.61 330.68 45.1 333.61 46.27C346.42 51.41 358.89 57.38 370.6 64.76ZM451.92 200.93C452.59 196.01 446.35 180.67 444.24 175.53C434.08 150.69 419.99 128.04 401.2 108.68C349.03 54.9 267.2 32.48 195.31 56.25C162.82 66.99 133.8 84.97 109.88 109.64C91.46 128.64 77.73 151.21 67.76 175.53C65.64 180.7 59.41 195.95 60.08 200.93C63.64 200.72 67.71 198.17 71.28 197.21C76.39 195.84 81.53 196.17 86.74 195.69C91.25 186.55 93.95 177.8 101.21 170.17C124.13 146.09 157.01 151.55 187.27 151.55C194.98 151.55 203.81 152.7, 211.35 150.78C229.68 146.13 237.38 120.74 258.34 123.39C278.48 125.93 283.9 149.07 304.69 151.32C340.58 155.2 384.2 140.62 411.68 171.15C418.38 178.59 421.01 186.96 425.26 195.69C430.35 196.16 435.32 195.95 440.34 197.14C444.08 198.03 448.23 200.73 451.92 200.93ZM82.61 211.11C66.24 208.27 48.2 227.81 46.1 242.83C42.88 265.79 59.37 286.33 82.53 287.78C83.13 284.89 81.66 281.52 81.15 278.6C80.03 272.17 79.18 265.34 79 258.81C78.72 248.03 78.87 237.33 80.15 226.62C80.76 221.59 82.76 216.1 82.61 211.11ZM429.47 211.02C428.64 215.1 431.05 221.77 431.75 225.99C433.02 233.67 433.2 241.69 433.17 249.45C433.14 257.03 433.07 264.93 431.73 272.42C430.95 276.8 428.59 283.52 429.47 287.79C447.34 286.54 462.07 274.07 465.78 256.47C470.24 235.3 452.38 209.56 429.47 211.02ZM173.37 216.23C185.49 214.16 197.89 222.29 201.18 233.97C202.33 238.04 203.37 243.57 199.75 246.74C196.34 249.71 190.6 248.92 188.34 244.88C185.3 239.44 187.78 231.23 177.45 231.03C172.55 230.94 168.44 234.39 167.24 239.07C166.86 240.54 167.18 242.11 166.62 243.55C165.02 247.74 160.13 249.86 156.03 247.74C151.26 245.28 151.81 239.8 152.79 235.4C155.02 225.47 163.38 217.93 173.37 216.23ZM331.32 216.19C343.17 214.56 354.05 221.6 358.34 232.47C360.05 236.8 361.41 243.28 357.37 246.78C354.17 249.54 348.68 249.05 346.32 245.41C342.93 240.21 345.73 231.16 335.02 231.03C324.57 230.9 326.57 238.94 323.82 244.6C322.04 248.27 317.11 249.57 313.62 247.72C308.77 245.16 309.34 238.74 310.71 234.29C313.6 224.94 321.39 217.55 331.32 216.19ZM235.54 254.49C240.81 253.01 246.83 261.42 253.73 262.63C264.82 264.57 266.7 255.38 273.77 254.29C279.16 253.47 283.17 258.95 281.88 263.92C280.85 267.86 275.73 271.25 272.46 273.18C261.32 279.74 246.36 279.25 236.18 270.91C230.88 266.57 225.35 257.36 235.54 254.49ZM169.5 396.08C166.12 396.98 162.82 401.3 160.44 403.8C153.84 410.72 148.32 418.53 143.75 426.89C142.17 429.79 139.5 433.52 139.11 436.8C140.89 438.55 144.54 438.6 146.92 439.25C153.93 441.16 160.99 442.94 168.03 444.8C171.43 445.7 175.68 445.91 178.34 448.45C181.94 451.88 180.75 458.2 180.75 462.67C180.75 472.29 179.27 488.13 181.08 496.99C190.93 496.99 200.79 496.99 210.64 496.99C212.45 485.88 210.13 474.35 212.19 463.14C214.67 449.62 220.1 436.46 228.24 425.34C230.75 421.91 233.94 418.93 236.34 415.44C233.33 414.11 229.34 414.32 226.07 413.87C220.67 413.13 215.15 412.05 209.85 410.8C195.93 407.5 182.24 402.58 169.5 396.08ZM342.5 396.04C325.32 405.29 305.23 411.11 285.93 413.84C279.9 414.69 273.77 415.37 267.69 415.72C264.6 415.9 260.37 415.16 257.43 416.12C255.33 416.81 246.67 426.59 244.77 428.77C231.49 443.99 225.91 462.3 225.91 482.31C225.91 486.98 225.14 492.45 226.18 497C261.09 497 296.01 497 330.92 497C332.73 488.1 331.25 472.31 331.25 462.67C331.25 458.21 330.05 451.87 333.65 448.44C336.3 445.92 340.59 445.71 343.97 444.8C350.99 442.91 358.06 441.16 365.08 439.25C367.45 438.61 371.12 438.55 372.89 436.81C372.51 433.53 369.84 429.78 368.26 426.88C363.72 418.53 358.23 410.63 351.63 403.75C349.25 401.28 345.85 396.89 342.5 396.04ZM133.49 451.77C129.64 460.1 125.13 488.09 126.38 496.99C139.49 496.99 152.61 496.99 165.72 496.99C165.72 484.6 165.72 472.22 165.72 459.83C154.98 457.14 144.24 454.46 133.49 451.77ZM378.51 451.77C367.76 454.46 357.02 457.14 346.28 459.83C346.28 472.22 346.28 484.6 346.28 496.99C359.39 496.99 372.51 496.99 385.62 496.99C386.86 488.09 382.35 460.11 378.51 451.77Z" fill="#ec4899" fill-rule="evenodd" stroke="#ec4899" stroke-width="9" stroke-linejoin="round"/>
</svg>